<?xml version="1.0" encoding="utf-8"?>
<svg viewBox="0 0 500 500" xmlns="http://www.w3.org/2000/svg">
  <path d="M 466.434 118.432 L 685.052 273.956 L 247.815 273.956 L 466.434 118.432 Z" style="fill: rgb(216, 216, 216); stroke: rgb(0, 0, 0); stroke-opacity: 0;" transform="matrix(0, -1, 1, 0, -27.311996, 717.218018)"/>
  <path d="M 468.004 -436.191 L 686.622 -273.882 L 249.385 -273.882 L 468.004 -436.191 Z" style="stroke: rgb(0, 0, 0); stroke-opacity: 0; fill: rgb(186, 186, 186);" transform="matrix(0, -1, -1, 0, -27.311016, 717.218994)"/>
  <path stroke="rgb(255,0,0)" d="M 382.998 130.269 C 386.346 129.851 391.693 131.234 393.755 133.202 C 395.508 134.876 395.724 138.894 395.71 140.373 C 395.703 141.203 394.652 141.711 395.058 142.003 C 395.88 142.593 402.527 140.203 405.163 140.699 C 407.253 141.092 408.916 142.1 410.052 143.632 C 411.315 145.337 412.383 148.58 412.008 150.803 C 411.631 153.035 410.143 155.539 407.77 156.996 C 404.703 158.88 396.503 157.6 393.755 159.604 C 391.669 161.124 392.481 164.709 390.821 166.123 C 389.135 167.558 385.94 168.303 383.65 168.078 C 381.378 167.855 378.968 164.751 377.131 164.819 C 375.591 164.876 375.157 166.904 373.22 167.426 C 370.307 168.212 363.567 167.599 360.182 167.426 C 357.717 167.301 356.224 166.123 354.315 166.775 C 352.079 167.538 350.246 171.453 347.796 172.642 C 345.444 173.784 342.363 174.487 339.974 173.945 C 337.582 173.403 336.366 170.02 333.455 169.382 C 329.691 168.558 322.107 171.458 318.461 171.338 C 315.995 171.257 314.182 168.557 312.92 170.034 C 310.435 172.943 311.991 195.787 312.268 200.999 C 312.39 203.289 313.238 203.515 312.92 204.91 C 312.627 206.194 312.427 207.828 311.088 209.197 C 310.91 215.585 310.181 223.37 313.032 225.967 C 317.275 229.832 333.036 227.097 335.197 225.967 C 335.963 225.566 335.198 224.98 335.523 224.337 C 336.011 223.368 335.905 222.029 338.456 220.752 C 345.47 217.241 386.482 207.296 395.171 208.366 C 398.893 208.824 399.634 210.812 400.712 212.603 C 401.744 214.319 400.185 217.852 401.689 218.796 C 403.633 220.015 410.52 216.235 413.423 216.84 C 415.641 217.302 417.277 218.789 418.313 220.426 C 419.387 222.124 420.05 224.872 419.616 226.945 C 419.161 229.12 417.867 231.329 415.379 233.138 C 411.821 235.724 401.48 236.476 398.104 239.33 C 395.645 241.41 398.101 244.552 394.519 246.827 C 386.662 251.816 345.318 259.726 336.5 258.561 C 332.752 258.066 332.025 256.359 330.959 254.324 C 329.771 252.056 330.104 246.927 330.307 245.197 C 330.412 244.304 331.573 243.961 330.959 243.568 C 329.056 242.348 306.471 245.692 301.298 244.22 C 298.653 243.467 298.151 243.239 297.061 240.634 C 295.284 236.388 293.884 221.722 293.993 212.328 C 282.664 212.766 269.192 212.81 266.636 215.34 C 264.468 217.487 269.086 221.412 268.592 223.815 C 268.14 226.015 266.292 228.31 264.354 229.356 C 262.324 230.453 259.924 229.941 256.532 230.008 C 251.643 230.104 242.441 229.15 236.975 229.356 C 232.609 229.521 229.102 231.278 225.893 230.66 C 223 230.103 219.82 228.25 218.396 226.423 C 217.19 224.874 218.976 222.105 217.092 220.881 C 213.772 218.726 197.463 215.462 193.624 220.23 C 189.682 225.126 196.143 244.711 197.907 256.022 C 198.181 256.355 198.459 256.767 198.753 257.283 C 201.919 262.841 203.14 292.671 207.879 296.722 C 210.585 299.035 215.6 296.6 217.658 294.767 C 219.621 293.017 217.999 288.401 220.265 286.292 C 223.134 283.623 229.788 282.719 235.585 281.729 C 242.272 280.587 252.949 279.654 258.401 280.425 C 262.119 280.951 265.209 282.753 266.549 283.685 C 267.233 284.159 267.098 284.184 267.527 284.988 C 268.456 286.73 268.347 293.82 271.765 295.419 C 276.622 297.691 294.801 294.634 298.492 290.855 C 301.103 288.182 297.797 282.435 298.492 279.447 C 299.039 277.095 298.894 275.487 301.426 273.906 C 306.336 270.84 328.833 270.386 333.694 267.713 C 336.011 266.439 334.684 264.702 336.628 263.476 C 339.846 261.445 347.122 260.14 354.229 258.913 C 363.294 257.348 380.556 257.243 387.475 255.653 C 391.472 254.735 392.519 252.509 395.298 252.394 C 398.255 252.272 402.879 253.449 404.75 255.327 C 406.419 257.002 406.663 260.836 406.706 262.498 C 406.733 263.551 405.445 264.34 406.054 264.78 C 407.295 265.677 416.647 262.73 420.07 263.476 C 422.598 264.027 424.36 265.455 425.611 267.061 C 426.829 268.626 427.748 270.91 427.566 272.928 C 427.368 275.135 426.525 278.146 423.981 279.773 C 420.252 282.158 406.67 279.536 404.098 282.707 C 401.969 285.332 406.763 291.965 406.054 295.093 C 405.493 297.566 403.7 299.598 401.817 300.634 C 399.909 301.683 397.183 301.624 394.646 301.286 C 391.789 300.904 389.927 298.697 385.519 298.026 C 378.417 296.946 360.537 297.564 353.577 298.026 C 349.464 298.299 347.418 299.862 345.102 299.33 C 343.087 298.867 341.256 297.482 340.213 295.744 C 339.052 293.81 338.872 289.232 338.909 287.922 C 338.926 287.342 339.504 287.23 339.235 286.944 C 338.648 286.318 335.077 285.626 332.064 285.64 C 327.919 285.66 318.653 285.333 316.093 288.248 C 314.858 289.654 315.14 292.397 315.574 295.132 C 317.033 295.673 318.356 296.475 319.144 297.657 C 322.032 301.99 319.447 315.818 320.448 321.777 C 321.148 325.947 320.858 329.584 323.381 331.229 C 326.437 333.222 336.624 332.364 339.352 330.577 C 341.218 329.356 339.072 326.387 341.308 324.71 C 345.535 321.541 360.516 319.608 370.969 318.191 C 382.065 316.687 399.572 314.759 406.171 316.236 C 409.725 317.031 411.114 318.526 412.364 320.473 C 413.622 322.431 411.76 326.617 413.668 327.97 C 416.193 329.76 425.505 326.382 428.987 327.318 C 431.39 327.964 432.833 329.165 433.877 330.903 C 435.038 332.838 435.676 336.536 435.18 338.726 C 434.735 340.693 433.832 342.377 431.595 343.615 C 428.125 345.535 417.017 343.716 413.668 346.549 C 410.913 348.879 414.816 353.984 410.734 357.305 C 402.448 364.046 355.968 374.738 347.501 374.254 C 344.438 374.079 344.449 372.774 343.264 371.32 C 341.859 369.598 340.694 367.236 340.004 364.15 C 339.089 360.053 342.638 350.754 339.352 348.178 C 335.408 345.087 318.895 351.692 314.255 350.786 C 311.797 350.306 311.365 349.861 310.017 347.852 C 307.643 344.314 304.729 335.042 303.498 327.644 C 302.57 322.066 302.019 314.027 302.172 307.827 C 292.228 308.784 279.217 309.455 276.328 312.368 C 273.755 314.962 277.76 319.762 276.98 322.472 C 276.308 324.807 275.985 326.398 272.742 328.013 C 265.835 331.454 233.98 336.42 227.11 335.184 C 224.167 334.654 223.804 333.288 222.873 331.598 C 221.798 329.649 221.72 326.745 221.569 323.776 C 221.39 320.262 224.569 313.137 222.221 311.716 C 219.14 309.851 204.638 319.906 199.731 319.538 C 196.638 319.307 195.475 318.63 193.538 315.301 C 189.532 308.417 184.376 279.263 183.127 269.823 C 175.733 269.468 167.103 268.505 164.941 270.425 C 162.793 272.333 166.032 276.719 165.593 279.226 C 165.214 281.391 164.654 283.512 162.985 284.767 C 160.984 286.272 157.643 286.464 153.533 286.722 C 147.665 287.091 137.953 284.51 130.065 285.419 C 121.878 286.362 110.542 292.942 105.293 292.589 C 102.15 292.378 100.581 290.559 99.1 289.004 C 97.736 287.571 96.994 286.104 96.493 283.789 C 95.807 280.627 99.274 273.563 96.493 271.077 C 92.803 267.779 75.676 272.063 70.743 270.425 C 67.904 269.483 66.788 268.03 65.854 266.188 C 64.879 264.265 64.843 260.912 65.202 259.017 C 65.488 257.507 66.234 256.355 67.158 255.432 C 68.081 254.508 68.551 253.922 70.743 253.476 C 75.5 252.507 94.892 256.611 99.1 253.476 C 101.964 251.343 99.25 245.748 100.404 242.72 C 101.446 239.983 101.636 237.458 105.293 235.875 C 112.404 232.798 142.88 232.791 149.622 234.571 C 152.558 235.346 152.78 236.09 153.859 238.157 C 155.488 241.277 152.935 250.706 156.467 253.476 C 160.654 256.761 177.992 254.647 180.261 253.476 C 181.043 253.072 180.692 252.764 180.586 251.846 C 180.351 249.799 177.571 245.422 176.675 240.112 C 175.355 232.286 173.889 213.024 175.371 207.518 C 176.102 204.806 177.267 204.212 178.957 203.28 C 180.906 202.206 183.116 202.14 186.779 201.977 C 192.651 201.715 209.494 205.654 212.529 203.28 C 214.383 201.83 211.369 198.084 211.877 195.784 C 212.375 193.529 213.692 190.949 215.463 189.591 C 217.26 188.211 220.328 187.508 222.633 187.635 C 224.887 187.76 225.92 190.251 229.152 190.243 C 234.711 190.229 250.23 181.936 255.228 182.42 C 257.969 182.685 259.052 184.046 260.117 186.005 C 261.492 188.535 258.28 195.327 261.421 197.413 C 266.27 200.634 289.729 200.785 295.319 194.806 C 300.794 188.95 293.159 169.826 295.319 162.537 C 296.801 157.537 299.744 154.286 302.816 152.433 C 305.603 150.751 309.165 150.969 312.594 151.129 C 316.306 151.302 320.83 154.082 324.328 153.737 C 327.49 153.425 331.273 149.936 332.803 149.825 C 333.531 149.773 333.586 150.439 334.107 150.477 C 334.74 150.524 336.117 150.314 336.388 149.825 C 336.66 149.336 335.654 148.574 335.736 147.544 C 335.866 145.927 335.605 142.509 338.344 140.699 C 343.517 137.28 366.292 137.907 373.872 135.484 C 378.509 134.002 379.729 130.676 382.998 130.269 Z" style="stroke: rgb(129, 151, 57); fill: rgb(255, 246, 189); stroke-width: 0px; stroke-opacity: 0;"/>
  <g transform="matrix(1.182672, 0, 0, 1.420519, 34.458622, 8.721664)" style="">
    <path style="paint-order: fill; stroke: rgb(156, 143, 108); stroke-width: 2px; stroke-linecap: round; stroke-linejoin: round; vector-effect: non-scaling-stroke; fill: rgb(255, 255, 255); fill-opacity: 0;" d="M 29.781 173.5 C 36.793 173.5 44.084 172.983 51.033 173.721 C 51.782 173.801 56.838 174.984 57.69 174.146 C 59.914 171.958 55.911 162.697 58.115 160.383 C 59.118 159.33 66.446 160.383 67.672 160.383 C 76.046 160.383 85.08 159.684 93.271 161.233 C 94.507 161.467 98.732 160.378 99.673 161.233 C 101.604 162.989 98.783 171.088 100.974 173.316 C 101.909 174.267 112.224 172.545 114.175 172.545 C 115.778 172.545 127.129 174.152 128.058 173.253 C 128.484 172.84 126.886 169.421 126.76 168.761 C 125.757 163.504 124.867 158.707 123.541 153.439 C 123.193 152.057 120.094 138.359 119.973 138.359 C 118.736 138.359 122.448 138.359 123.686 138.359 C 126.112 138.359 128.538 138.359 130.964 138.359 C 134.196 138.359 151.409 139.474 153.999 136.968 C 155.16 135.845 151.498 127.898 152.402 127.419 C 154.293 126.418 159.28 127.419 161.463 127.419 C 167.544 127.419 175.582 125.792 181.541 124.282 C 182.241 124.105 187.965 122.361 188.488 122.828 C 190.975 125.05 187.92 132.866 190.128 135.074 C 191.202 136.148 197.901 134.867 199.433 134.867 C 208.337 134.867 217.173 132.823 225.704 132.823 C 225.878 132.823 224.609 127.698 224.609 127.045 C 224.609 123.671 220.584 110.681 222.351 108.705 C 225.926 104.706 241.813 103.643 247.222 103.643 C 249.6 103.643 256.212 104.373 257.891 102.721 C 259.442 101.196 255.876 95.294 257.443 93.62 C 258.755 92.219 269.868 93.295 271.856 92.894 C 279.288 91.399 286.782 89.761 294.222 88.262 C 296.802 87.743 303.989 85.529 303.279 86.228 C 302.795 86.704 301.983 88.65 301.749 89.467 C 301.543 90.185 299.851 94.303 300.341 94.817 C 301.407 95.937 317.313 94.949 317.313 93.61"/>
    <path style="paint-order: fill; stroke: rgb(156, 143, 108); stroke-width: 2px; stroke-linecap: round; stroke-linejoin: round; vector-effect: non-scaling-stroke; fill: rgb(255, 255, 255); fill-opacity: 0;" d="M 317.048 101.891 C 314.795 101.653 304.267 98.713 302.139 100.707 C 301.143 101.639 303.285 108.372 302.139 108.95 C 296.968 111.557 282.652 109.795 276.582 110.437 C 271.16 111.01 266.153 112.636 261.698 114.829 C 261.192 115.079 258.111 116.608 257.578 116.131 C 256.861 115.489 260.335 109.911 258.795 108.346 C 256.397 105.909 242.173 109.071 238.867 109.619 C 236.973 109.934 235.056 109.991 233.143 109.991 C 232.582 109.991 230.218 110.04 230.451 110.159 C 232.255 111.084 232.174 117.406 232.511 119.189 C 234.039 127.271 233.051 137.449 233.051 145.542 C 233.051 146.856 232.278 154.304 233.219 155.356 C 233.708 155.904 237.762 155.356 238.536 155.356 C 241.403 155.356 253.585 156.813 255.546 154.821 C 256.059 154.301 254.291 150.512 255.378 149.387 C 256.13 148.61 263.234 148.731 264.489 148.494 C 274.158 146.666 283.846 144.38 293.659 143.324 C 294.503 143.233 304.803 140.462 305.523 141.147 C 306.383 141.965 305.523 148.65 305.523 149.925 C 305.523 151.392 308.446 149.617 309.913 149.617 C 313.495 149.617 316.96 149.428 320.501 149.428"/>
    <path style="paint-order: fill; stroke: rgb(156, 143, 108); stroke-width: 2px; stroke-linecap: round; stroke-linejoin: round; vector-effect: non-scaling-stroke; fill: rgb(255, 255, 255); fill-opacity: 0;" d="M 322.177 156.726 C 318.6 156.726 306.69 155.745 304.122 158.15 C 302.72 159.463 306.165 164.446 304.716 165.896 C 302.06 168.552 286.803 168.773 282.671 169.458 C 275.693 170.617 258.071 168.239 252.949 173.874 C 252.934 173.89 252.796 171.197 252.796 170.994 C 252.796 169.523 252.591 160.878 252.483 160.976 C 249.241 163.928 239.098 161.711 234.642 162.817 C 233.516 163.097 223.74 164.582 223.733 164.488 C 223.376 159.117 222.295 153.057 222.295 147.821 C 222.295 146.583 223.026 141.183 222.124 140.281 C 222.079 140.236 213.629 142.57 212.603 142.825 C 206.251 144.402 198.932 142.125 192.886 142.125 C 191.904 142.125 193.888 143.853 194.088 144.814 C 194.284 145.762 196.262 153.41 195.725 154.001 C 194.906 154.902 188.117 154.001 186.861 154.001 C 179.805 154.001 172.75 154.001 165.695 154.001 C 164.82 154.001 159.363 154.385 158.603 153.66 C 157.148 152.274 159.26 146.292 157.87 144.985 C 157.138 144.297 152.422 144.985 151.521 144.985 C 145.385 144.985 139.249 144.985 133.113 144.985 C 131.54 144.985 134.104 148.026 134.104 149.599 C 134.104 153.055 133.656 156.957 134.289 160.309 C 136.928 174.261 142.267 192.061 142.267 205.827 C 142.267 207.503 145.46 204.781 147.101 204.436 C 150.282 203.769 154.056 204.248 157.35 204.248 C 162.931 204.248 158.128 198.122 160.849 195.216 C 161.679 194.33 175.812 195.469 177.961 195.827 C 179.105 196.018 197.691 195.501 197.691 195.501 C 197.691 195.501 196.783 202.978 197.721 203.917 C 198.829 205.025 200.427 202.239 201.946 201.854 C 205.257 201.015 209.13 200.952 212.292 199.952 C 215.027 199.088 227.971 201.833 228.951 199.952 C 230.376 197.217 226.82 188.547 228.951 186.344 C 231.375 183.838 245.656 186.003 249.615 186.003 C 250.217 186.003 255.641 186.096 255.651 186.003 C 255.903 183.482 253.328 180.092 255.429 178.682 C 257.337 177.401 262.896 177.769 265.281 177.312 C 275.588 175.336 286.743 175.805 296.722 173.276 C 297.807 173.001 307.995 170.073 308.645 170.691 C 309.728 171.722 310.167 182.663 310.167 184.118 C 310.167 186.663 315.084 182.758 317.601 182.382 C 318.358 182.269 327.063 181.968 327.063 181.457"/>
    <path style="paint-order: fill; stroke: rgb(156, 143, 108); stroke-width: 2px; stroke-linecap: round; stroke-linejoin: round; vector-effect: non-scaling-stroke; fill: rgb(255, 255, 255); fill-opacity: 0;" d="M 331.326 189.96 C 328.831 189.96 312.441 189.551 310.71 191.225 C 304.451 197.279 320.671 202.819 307.155 202.819 C 305.549 202.819 303.943 202.819 302.337 202.819 C 291.631 202.819 280.925 202.819 270.219 202.819 C 269.347 202.819 260.79 203.54 260.418 202.819 C 259.342 200.738 261.431 194.775 259.89 193.184 C 258.789 192.045 250.979 193.184 248.913 193.184 C 247.012 193.184 237.999 192.333 236.914 193.349 C 236.223 193.996 236.914 199.984 236.914 201.116 C 236.914 207.856 237.808 214.308 237.808 221.105 C 237.808 222.423 237.329 227.676 238.144 228.544 C 239.126 229.589 258.189 229.828 258.783 229.234 C 259.935 228.082 258.242 223.543 259.666 222.048 C 260.749 220.911 267.893 221.411 269.524 221.411 C 278.534 221.411 287.775 221.908 296.623 220.792 C 298.33 220.577 314.793 218.92 315.642 219.679 C 317.13 221.01 314.474 226.762 315.978 228.292 C 316.856 229.184 324.207 227.744 325.795 227.744 C 327.007 227.744 333.633 227.643 333.633 227.26"/>
    <path style="paint-order: fill; stroke: rgb(156, 143, 108); stroke-width: 2px; stroke-linecap: round; stroke-linejoin: round; vector-effect: non-scaling-stroke; fill: rgb(255, 255, 255); fill-opacity: 0;" d="M 335.464 236.361 C 332.666 236.361 318.377 234.008 316.574 235.781 C 314.92 237.408 318.149 243.837 316.574 245.569 C 316.011 246.189 309.526 246.308 308.426 246.527 C 300.398 248.124 292.417 249.388 284.359 250.39 C 281.701 250.72 264.132 255.586 261.248 252.702 C 258.456 249.91 262.64 239.098 260.285 236.468 C 259.727 235.845 254.995 236.468 254.214 236.468 C 248.291 236.468 242.319 236.84 236.514 236.84 C 235.883 236.84 231.143 237.496 231.006 237.362 C 227.343 233.759 234.234 219.653 230.665 216.084 C 229.936 215.355 231.173 210.716 230.334 210.275 C 228.48 209.302 222.39 210.433 220.166 210.433 C 217.719 210.433 215.272 210.433 212.824 210.433 C 211.29 210.433 209.844 210.209 208.31 210.209 C 199.491 210.209 202.46 211.44 202.46 219.496 C 202.46 220.137 202.944 223.459 202.46 223.942 C 201.549 224.853 194.626 224.253 193.311 224.403 C 184.821 225.373 175.934 223.796 167.676 225.847 C 166.931 226.032 161.56 227.857 160.694 226.962 C 159.012 225.226 160.694 213.788 160.694 210.724 C 160.694 208.344 156.129 212.374 153.749 212.374 C 147.66 212.374 140.78 215.587 136.12 215.735 C 134.965 215.772 136.12 213.423 136.12 212.267 C 136.12 210.148 136.12 208.029 136.12 205.911 C 136.12 200.313 133.019 194.257 131.198 188.99 C 130.99 188.389 131.039 183.34 130.668 183.146 C 129.725 182.65 125.95 183.314 124.623 183.314 C 121.881 183.314 107.02 179.972 105.7 181.248 C 104.152 182.747 107.519 190.019 105.869 191.834 C 105.063 192.721 99.095 191.439 97.913 191.439 C 90.405 191.439 83.222 192.637 75.894 193.548 C 70.414 194.229 64.37 193.233 59.072 194.549 C 58.218 194.761 54.626 196.118 53.931 195.496 C 52.923 194.593 56.299 184.678 54.117 182.461 C 50.645 178.931 33.548 182.402 29.035 182.402"/>
  </g>
  <!-- <g transform="matrix(1, 0, 0, 1, 65.966949, 165.726562)" style="">
    <path style="fill-opacity: 0; stroke-linecap: round; stroke-linejoin: round; paint-order: fill; fill: rgb(255, 255, 255); stroke: rgb(255, 246, 189); stroke-width: 19px;" d="M 62.403 52.714 C 97.136 45.783 133.855 35.179 169.25 35.179"/>
    <path style="fill-opacity: 0; stroke-linecap: round; stroke-linejoin: round; paint-order: fill; fill: rgb(255, 255, 255); stroke: rgb(255, 246, 189); stroke-width: 19px;" d="M 111.232 42.748 C 122.605 73.438 133.463 103.634 133.463 135.51"/>
    <path style="fill-opacity: 0; stroke-linecap: round; stroke-linejoin: round; paint-order: fill; fill: rgb(255, 255, 255); stroke: rgb(255, 246, 189); stroke-width: 19px;" d="M 210.703 31.55 C 217.23 30.808 225.545 33.96 232.022 35.039 C 248.779 37.832 264.479 41.586 280.341 47.929 C 287.402 50.753 298.205 58.968 306.124 58.968"/>
    <path style="fill-opacity: 0; stroke-linecap: round; stroke-linejoin: round; paint-order: fill; fill: rgb(255, 255, 255); stroke: rgb(255, 246, 189); stroke-width: 19px;" d="M 255.168 40.721 C 255.168 52.174 249.573 65.913 247.016 77.151 C 242.572 96.686 240.149 116.807 240.149 136.804"/>
  </g>
  <g transform="matrix(1, 0, 0, 1, 65.506058, 166.031311)" style="">
    <path style="stroke: rgb(156, 143, 108); fill: rgb(216, 216, 216); fill-opacity: 0; stroke-linecap: round; stroke-linejoin: round; stroke-width: 12px; paint-order: fill;" d="M 62.403 52.714 C 97.136 45.783 133.855 35.179 169.25 35.179"/>
    <path style="stroke: rgb(156, 143, 108); fill: rgb(216, 216, 216); fill-opacity: 0; stroke-linecap: round; stroke-linejoin: round; stroke-width: 12px; paint-order: fill;" d="M 111.232 42.748 C 122.605 73.438 133.463 103.634 133.463 135.51"/>
    <path style="stroke: rgb(156, 143, 108); fill: rgb(216, 216, 216); fill-opacity: 0; stroke-linecap: round; stroke-linejoin: round; stroke-width: 12px; paint-order: fill;" d="M 210.703 31.55 C 217.23 30.808 225.545 33.96 232.022 35.039 C 248.779 37.832 264.479 41.586 280.341 47.929 C 287.402 50.753 298.205 58.968 306.124 58.968"/>
    <path style="stroke: rgb(156, 143, 108); fill: rgb(216, 216, 216); fill-opacity: 0; stroke-linecap: round; stroke-linejoin: round; stroke-width: 12px; paint-order: fill;" d="M 255.168 40.721 C 255.168 52.174 249.573 65.913 247.016 77.151 C 242.572 96.686 240.149 116.807 240.149 136.804"/>
  </g> -->
</svg>