<svg version="1.1" id="Layer_1" xmlns="http://www.w3.org/2000/svg" xmlns:xlink="http://www.w3.org/1999/xlink"
	 viewBox="0 0 16 16" xml:space="preserve">
<g fill="#000000" stroke="none" transform="scale(0.03125,0.03125)">
<path  
	d="
M462.045166,359.963104 
	C461.383453,356.917267 460.663574,353.882568 460.078583,350.822083 
	C459.617889,348.411804 459.046265,345.973633 459.012329,343.541016 
	C458.939514,338.320618 459.956848,337.411713 465.925720,336.591888 
	C466.772736,332.664764 462.761017,326.410004 471.263062,325.726471 
	C470.892303,323.821838 470.367981,322.115326 470.280060,320.386658 
	C470.199646,318.805176 470.069031,316.839569 470.873627,315.673126 
	C473.169312,312.345062 475.951385,309.435425 475.354401,304.821411 
	C475.257538,304.072449 477.356079,303.039429 478.829376,301.813599 
	C477.493225,299.678467 475.975952,297.253906 475.177521,295.977997 
	C472.871368,298.625519 470.730774,303.211151 467.462219,304.250854 
	C464.033112,305.341644 459.522491,303.032532 456.126770,302.340240 
	C458.164185,307.291199 461.410980,312.489502 462.369415,318.080078 
	C464.265656,329.140503 461.897034,333.624481 449.864502,332.854095 
	C450.426147,337.958679 450.926422,342.928589 451.529358,347.885986 
	C452.418823,355.199310 453.170074,362.504211 447.176422,368.274323 
	C445.928589,369.475555 444.114014,370.837952 442.564301,370.833557 
	C438.121185,370.820923 438.231140,373.425537 437.904755,376.693329 
	C437.289551,382.852753 436.455902,389.048553 434.987762,395.051880 
	C432.368896,405.760498 424.453400,404.784882 417.061066,400.246704 
	C415.316040,399.175385 413.612823,398.036041 410.604004,396.100525 
	C411.748596,401.988190 412.307770,406.501434 413.548859,410.818634 
	C414.979919,415.796417 412.824310,421.793365 408.193115,424.438477 
	C405.657867,425.886505 402.741272,427.103088 400.875824,429.204498 
	C395.633179,435.110291 388.814484,433.355164 382.858246,432.503632 
	C379.507172,432.024506 376.704926,427.706726 373.718689,425.171967 
	C371.174805,431.877594 365.964966,434.035431 358.671112,431.316742 
	C356.700684,430.582306 354.642517,430.005951 352.575409,429.622253 
	C345.545685,428.317383 345.537292,428.362640 339.946777,422.227966 
	C340.796661,420.997101 341.691742,419.700745 342.586853,418.404388 
	C342.454803,418.100830 342.322784,417.797272 342.190765,417.493713 
	C336.705750,419.977081 331.364166,422.877045 325.695953,424.828186 
	C319.881409,426.829712 313.747406,427.903290 307.597778,429.421387 
	C311.537201,431.334198 318.332672,427.109497 318.961365,435.000122 
	C319.559082,442.501648 318.436859,443.864685 311.228027,445.535858 
	C310.639343,455.897339 310.639343,455.897339 303.480591,456.161713 
	C305.650269,459.404663 308.042725,462.528107 309.875641,465.951233 
	C310.529724,467.172821 310.428894,469.701355 309.581390,470.576721 
	C308.689758,471.497559 306.497070,471.233856 304.863434,471.333588 
	C303.845551,471.395721 302.357666,470.687103 301.855988,471.155273 
	C298.508881,474.278564 294.786499,473.036041 291.909058,471.294891 
	C286.352020,467.932343 281.289276,463.752777 275.790833,459.743652 
	C273.737061,461.536530 271.255737,460.977692 268.918884,458.447052 
	C264.251312,453.392487 259.225403,448.626556 254.962204,443.253632 
	C251.266602,438.596069 254.310379,426.760590 259.001038,425.443420 
	C262.767181,424.385803 267.066498,426.629639 268.217865,430.512482 
	C269.928253,436.280396 271.434753,442.108795 272.689301,446.677795 
	C273.473206,444.811462 274.838409,441.561188 276.383911,437.881683 
	C274.424316,434.617218 272.031799,430.631592 269.639282,426.645966 
	C270.194458,426.003662 270.749634,425.361328 271.304779,424.719025 
	C273.279938,425.699615 275.255096,426.680206 277.663940,428.080566 
	C278.498901,428.888550 278.900177,429.276764 279.534119,429.910767 
	C285.049988,434.960449 290.333191,439.764404 296.241791,445.137024 
	C295.961548,439.787476 295.726501,435.300476 295.469269,430.390045 
	C291.018646,429.975494 285.526520,429.463928 279.849548,428.679688 
	C279.008606,428.314362 278.352478,428.221741 277.696381,428.129150 
	C277.989716,426.351257 278.283051,424.573364 278.705078,422.015564 
	C276.514191,422.015564 274.402039,421.768005 272.366364,422.057709 
	C262.698212,423.433533 253.311035,421.925293 244.826767,417.576508 
	C241.172134,415.703186 238.518509,411.290192 236.254089,407.523590 
	C235.006271,405.447968 236.269958,402.844879 239.600540,403.012787 
	C242.065506,403.137054 244.522476,403.420288 247.073639,403.244720 
	C242.243713,400.670288 238.641434,396.698151 238.302429,391.778076 
	C237.802856,384.527557 235.733047,376.656433 241.478897,369.728058 
	C243.860474,371.278076 246.013153,372.679138 247.066635,373.364777 
	C249.438614,371.673096 251.625534,368.996826 253.076111,369.349487 
	C255.081665,369.837006 256.532593,372.605865 257.816040,373.967926 
	C259.541748,373.258636 262.133057,372.193604 265.394531,370.853119 
	C263.688354,369.625275 261.758972,368.535339 260.234314,367.034271 
	C259.223694,366.039307 258.112946,364.351624 258.294434,363.164795 
	C258.474182,361.989136 260.124359,360.927673 261.299805,360.042023 
	C262.879181,358.852051 264.621918,357.878815 266.294495,356.812500 
	C265.998199,356.291626 265.701904,355.770721 265.405609,355.249847 
	C262.046692,356.860626 258.687775,358.471436 254.182297,360.632050 
	C251.602356,365.886719 245.416397,368.028290 238.879471,368.770477 
	C236.168991,369.078247 234.127899,369.678436 232.113678,371.693787 
	C231.962692,371.947937 232.055069,371.935669 231.606659,371.969360 
	C228.563705,372.003021 225.969177,372.003021 223.374634,372.003021 
	C223.660950,372.440460 223.947266,372.877899 224.233582,373.315338 
	C221.983170,376.185913 219.732742,379.056488 217.224930,382.255371 
	C218.380112,382.930878 219.861191,383.796967 221.510315,384.875336 
	C221.957581,385.628021 222.236801,386.168396 222.516022,386.708771 
	C222.716309,386.609711 222.916611,386.510651 223.116898,386.411560 
	C222.759766,385.595551 222.402649,384.779510 222.167084,383.591736 
	C222.519089,382.444489 222.884598,381.681732 222.958725,380.891632 
	C223.580826,374.261292 225.369827,373.338989 231.117859,377.048767 
	C231.584290,377.523499 231.852707,377.792938 232.121109,378.062347 
	C234.165955,382.179291 238.043091,385.397034 236.648026,391.040405 
	C235.388214,396.136658 233.624374,399.416626 227.815231,397.832916 
	C225.686844,403.011658 220.389053,404.004913 215.291473,400.955383 
	C211.236176,398.529358 206.849045,396.597443 202.465149,394.796967 
	C197.218658,392.642242 192.420837,394.930817 187.634933,396.884277 
	C170.965332,403.688477 153.941971,395.242798 149.271698,378.693085 
	C148.512863,376.004059 149.607483,370.872131 151.508606,369.789215 
	C154.582977,368.037964 159.036942,368.708649 162.908325,368.356567 
	C162.999084,368.804230 163.089859,369.251892 163.180634,369.699554 
	C163.408585,369.308899 163.778229,368.940460 163.843445,368.524292 
	C165.001724,361.132935 170.357468,358.697571 177.247925,361.964813 
	C181.596512,364.026733 186.219879,366.026215 190.908340,366.659760 
	C193.708755,367.038147 197.147903,365.169373 199.816650,363.525940 
	C205.362686,360.110626 210.762543,358.209442 217.543762,359.775940 
	C225.552353,361.625946 228.335403,359.305786 231.128296,351.355469 
	C232.030060,348.788513 233.832809,346.519196 235.336243,344.186462 
	C238.491653,339.290588 241.119263,345.013031 244.312561,344.649078 
	C245.883865,342.903290 247.548782,341.053467 249.660385,338.707336 
	C246.102844,339.903839 243.369095,341.787811 241.143204,341.309296 
	C238.764481,340.797943 236.682922,338.229767 234.805542,336.243744 
	C232.785812,334.107178 231.153778,331.604095 229.382553,329.299896 
	C218.418137,332.357483 214.937271,331.290039 210.546463,323.354095 
	C209.875275,325.343323 209.273087,327.128113 208.595566,329.136139 
	C213.268845,330.820465 217.720108,332.554718 219.602921,337.845245 
	C220.806076,341.225983 218.921432,349.268799 216.035049,351.496277 
	C207.791519,357.858032 198.430923,356.849121 189.121979,355.539459 
	C185.962494,355.094940 182.822083,353.632812 187.449051,348.504425 
	C184.642090,349.296722 183.236649,349.512939 181.986771,350.075043 
	C172.725327,354.240082 160.729218,348.312500 159.365601,338.257111 
	C158.991684,335.499756 161.453217,332.357880 163.065735,329.136017 
	C166.562820,328.879578 169.607788,328.879578 173.056839,328.879578 
	C172.834045,326.924347 172.683914,325.606842 172.525970,324.220703 
	C168.916656,325.852020 165.746704,327.284729 162.576767,328.717438 
	C158.062668,329.478394 153.503143,331.076630 149.043442,330.834686 
	C138.079529,330.239960 127.267258,327.968170 120.911613,317.819977 
	C117.977921,313.135651 116.708504,307.341980 115.101639,301.927490 
	C114.476227,299.820129 114.999428,297.371857 114.999428,294.994995 
	C108.597191,296.234558 107.120567,295.201233 104.879066,289.328766 
	C102.481178,283.046600 99.760277,276.887726 97.194870,270.710022 
	C94.451180,272.326935 93.950668,277.108887 96.440643,279.780060 
	C97.962898,281.413086 99.632172,282.964600 100.862114,284.802551 
	C103.127693,288.188019 104.322823,291.706696 99.694031,294.874420 
	C103.881622,298.471802 108.602097,301.251465 111.452744,305.336090 
	C114.278328,309.384827 115.612946,314.649963 116.846756,319.570862 
	C117.647400,322.764130 114.502991,324.133514 112.468422,322.575745 
	C105.163132,316.982574 96.334740,318.713287 87.763519,316.297607 
	C86.555481,315.750488 85.893692,315.661804 85.231911,315.573151 
	C85.807335,316.062195 86.382759,316.551270 86.958191,317.040314 
	C90.533127,318.370178 94.029373,319.995819 97.698433,320.971924 
	C106.998878,323.446259 115.885033,326.429749 122.600105,333.966797 
	C125.928177,337.702209 130.025833,340.315430 135.539017,340.089600 
	C136.973328,340.030853 138.481094,341.765564 139.955124,342.676544 
	C138.831940,344.448029 138.020416,347.368561 136.526627,347.773743 
	C132.190002,348.949982 127.579750,349.117432 123.269669,349.656525 
	C128.602554,355.451202 135.445770,356.824249 142.252167,353.396606 
	C145.107101,351.958893 148.065674,350.719757 151.012024,349.472809 
	C153.887253,348.255981 155.790955,349.412811 156.947205,352.129211 
	C159.002441,356.957581 158.039322,361.722351 154.388367,364.846191 
	C148.833618,369.598999 142.443787,373.033875 134.534348,370.040283 
	C128.799118,367.869629 123.086967,365.177826 117.120544,364.185730 
	C108.102806,362.686249 98.872581,362.464661 89.912094,361.714996 
	C88.465279,365.937531 83.591782,368.844971 79.027008,366.655151 
	C75.010391,364.728271 71.135757,365.879913 67.487144,364.662445 
	C64.403244,363.633453 61.638607,361.647614 57.573055,359.461792 
	C52.428177,361.227234 44.182224,359.740814 44.607220,352.459625 
	C40.902187,352.066467 38.176891,359.257477 34.539310,354.573364 
	C32.792156,352.323517 33.605061,348.085602 33.271194,344.869324 
	C24.386335,350.346802 16.303398,360.989838 2.239552,358.905029 
	C1.391201,352.552216 7.126733,351.468750 9.660339,347.729889 
	C9.430212,346.838745 8.241385,344.738068 8.815928,343.987915 
	C10.500006,341.789032 11.796669,343.240784 12.555752,345.233002 
	C14.466534,344.256104 16.377314,343.279236 18.288092,342.302338 
	C18.185360,341.993988 18.082628,341.685669 17.979897,341.377350 
	C16.407225,341.142822 14.750996,341.145416 13.278566,340.626465 
	C9.773075,339.390961 9.165755,336.481628 11.898525,333.973694 
	C14.765327,331.342712 17.810366,328.905975 20.761984,326.397491 
	C16.361578,321.818909 16.295912,318.769073 19.044777,314.356232 
	C20.717072,311.671661 21.475342,308.424072 23.102497,305.703522 
	C25.288975,302.047791 27.722807,298.497406 30.415709,295.200073 
	C32.761642,292.327606 34.849297,289.687805 36.426746,286.042877 
	C38.853695,280.435059 44.150032,276.389191 50.629974,275.052704 
	C52.756386,274.614166 55.295662,274.236145 57.141376,275.019592 
	C58.507946,275.599670 60.103329,278.386230 59.751228,279.692291 
	C59.040909,282.327148 57.073910,284.623260 55.625275,287.059113 
	C55.288380,286.812866 54.951481,286.566620 54.614582,286.320374 
	C55.375774,288.341370 56.136963,290.362366 57.306950,293.468719 
	C58.473728,291.393158 59.573254,290.189484 59.849499,288.819763 
	C61.293629,281.659332 62.404171,274.585846 57.976898,267.791962 
	C53.897926,261.532562 61.026333,251.369583 65.701744,248.198441 
	C67.954224,246.670685 70.461678,245.336838 73.044319,244.512268 
	C80.552879,242.115005 85.341400,245.488449 84.842087,253.320282 
	C84.551826,257.873047 82.739403,262.328796 81.381828,267.746307 
	C81.504349,267.902344 82.510590,269.183899 83.194450,270.054840 
	C85.221420,267.233826 87.057831,263.979675 89.563507,261.367523 
	C92.691422,258.106689 96.975204,260.092804 98.503548,265.236176 
	C99.964142,264.568420 101.420181,263.902740 104.531670,262.480225 
	C101.990181,260.925323 100.323578,259.025330 98.867485,259.174896 
	C93.891975,259.685913 90.126343,257.422882 88.245796,253.623444 
	C86.049004,249.185074 85.739258,244.038910 89.000435,239.483597 
	C89.375603,238.959564 89.625069,238.345566 90.219711,237.285797 
	C90.556084,236.407013 90.605553,236.015701 90.655014,235.624390 
	C90.213974,235.858078 89.772934,236.091782 89.331894,236.325485 
	C84.020584,237.772369 83.770981,232.789078 81.306641,230.133240 
	C81.009621,230.024521 81.065338,230.086182 81.065338,230.086182 
	C78.589554,226.439377 76.356735,222.595108 73.586929,219.187286 
	C67.988640,212.299500 66.289528,196.496262 69.969551,188.330002 
	C71.962448,183.907593 72.432587,178.666718 78.313995,177.356110 
	C79.081352,177.185089 79.914108,177.307556 81.191635,177.671188 
	C82.005188,178.134109 82.343674,178.219940 82.682159,178.305756 
	C82.469810,177.858200 82.257462,177.410629 82.045120,176.963074 
	C82.727020,173.994171 83.408920,171.025284 84.269379,167.278946 
	C78.019859,170.694565 74.230148,166.797424 71.307693,163.570328 
	C66.006020,157.715973 61.330463,151.215668 56.977726,144.600616 
	C51.395424,136.116928 46.028854,127.444389 41.290531,118.472336 
	C38.973110,114.084290 38.100464,108.879868 36.911091,103.963371 
	C35.527691,98.244850 33.662560,92.459564 33.508739,86.663391 
	C33.139698,72.757423 41.982227,63.236454 56.340275,62.011398 
	C65.707924,61.212135 75.349838,58.973770 84.415977,60.354347 
	C99.041145,62.581436 113.571358,61.955833 128.113632,61.804947 
	C138.257172,61.699696 148.422623,60.054100 158.506409,58.598614 
	C179.785751,55.527180 201.119919,52.122166 222.613785,54.296856 
	C231.603424,55.206406 240.351181,59.002888 249.074631,61.892258 
	C256.224792,64.260529 263.377899,66.808853 270.153625,70.060921 
	C275.923645,72.830284 281.271759,76.547791 286.599182,80.152275 
	C292.860718,84.388733 298.898499,88.955910 305.381714,93.630905 
	C304.323151,85.872131 305.393127,85.263039 312.097290,87.428230 
	C319.074707,89.681656 326.424164,90.793724 333.379089,93.103180 
	C341.744781,95.881081 350.034332,99.027107 358.048157,102.689194 
	C367.064606,106.809456 375.734802,111.686928 384.560181,116.226059 
	C387.426636,117.700348 390.307526,119.146507 393.335815,120.304184 
	C393.489807,120.002831 393.408020,120.002449 393.828979,120.192566 
	C394.533875,120.263512 394.817810,120.144341 395.063110,120.002022 
	C395.024536,119.978874 394.954712,119.922127 394.830811,120.278557 
	C395.209076,121.291222 395.571136,122.218758 396.235107,122.561455 
	C402.429230,125.758568 408.637939,128.932709 414.919983,131.952164 
	C418.715576,133.776489 422.639801,135.335617 426.521393,136.978073 
	C432.120300,139.347168 437.785217,141.570236 443.304016,144.111694 
	C444.734314,144.770340 445.725555,146.382355 446.918488,147.556458 
	C445.687225,148.692154 444.629974,150.318283 443.178528,150.833221 
	C441.547485,151.411865 439.560486,150.996185 437.728363,150.997574 
	C431.931793,151.002014 426.135193,150.999207 419.076202,150.999207 
	C420.898346,152.994064 421.493622,154.126740 422.421631,154.583649 
	C428.432983,157.543442 434.626068,160.148727 440.548981,163.269836 
	C447.768158,167.073990 454.665466,171.496124 461.930298,175.203613 
	C465.561554,177.056793 465.689545,180.038376 464.608429,182.625519 
	C464.039673,183.986526 460.886353,184.503906 458.803192,184.954788 
	C449.686218,186.928162 441.624664,181.836304 432.924164,180.817657 
	C429.884613,180.461792 427.993591,178.354630 429.551483,174.645142 
	C430.688538,171.937775 429.589996,170.589294 426.478882,169.915451 
	C420.649872,168.652939 414.635193,167.439423 409.289459,164.939957 
	C400.886322,161.010986 393.025055,155.936508 384.818634,151.564377 
	C382.571564,150.367203 379.911499,149.945190 377.440979,149.167450 
	C377.257446,149.601334 377.073944,150.035217 376.890411,150.469101 
	C379.489960,152.057693 382.232727,153.460022 384.633850,155.306610 
	C386.015228,156.368973 387.655365,158.150421 387.655609,159.608444 
	C387.655823,160.711273 385.244202,161.814560 384.188080,162.685059 
	C388.785614,165.110062 393.872894,168.005203 399.144348,170.513306 
	C404.243286,172.939331 409.504303,175.035263 414.745728,177.148071 
	C419.048157,178.882385 423.344727,180.712112 427.789917,181.992584 
	C434.637421,183.965073 441.597748,185.554733 448.533783,187.207870 
	C452.830597,188.232010 457.133575,189.501617 461.501770,189.884125 
	C466.560150,190.327072 466.177521,194.187698 466.218536,197.116409 
	C466.236450,198.395401 463.509949,200.232178 461.699097,200.856644 
	C460.192413,201.376205 458.167938,200.630615 456.434448,200.198303 
	C454.053253,199.604462 451.760895,198.646225 449.373352,198.088791 
	C447.184814,197.577805 444.920441,197.391556 442.689484,197.062225 
	C442.489044,197.532837 442.288605,198.003448 442.088165,198.474060 
	C449.145569,203.531952 456.129669,208.696503 463.284241,213.612976 
	C468.729095,217.354568 472.675659,222.074966 474.475616,228.125656 
	C475.620209,226.059433 476.917511,223.717621 477.675720,222.348953 
	C476.625519,219.810455 474.846100,217.584976 475.361755,216.238495 
	C476.030121,214.493332 478.527374,213.448608 480.306305,212.048035 
	C477.880219,207.898224 469.724945,205.126862 475.278748,197.500763 
	C469.888916,194.829712 469.601532,192.084656 474.129425,186.521835 
	C468.241058,181.884354 463.942871,174.046173 469.274017,170.308289 
	C466.337952,166.395050 464.897522,162.414673 468.172272,159.584396 
	C466.272095,156.431763 464.571167,153.755966 463.032227,150.990036 
	C462.339569,149.745087 461.939636,148.331055 461.460968,146.974625 
	C460.633698,144.630508 459.848663,142.271469 459.011383,139.944794 
	C458.976868,139.970886 458.903381,140.016678 459.223358,140.223358 
	C460.394104,139.946716 461.244904,139.463379 462.080414,139.022064 
	C462.065125,139.064087 462.030182,139.146408 462.030182,139.146408 
	C473.066986,137.553101 480.188019,142.892365 485.066528,152.177032 
	C486.438782,154.788620 487.957611,157.346375 489.064056,160.069092 
	C490.787109,164.309006 489.053040,167.464783 485.438202,169.833008 
	C491.164917,176.155609 495.179443,183.476868 496.940094,191.887924 
	C497.601776,195.048935 496.820435,197.746109 492.807800,197.079636 
	C495.154877,202.272308 497.422180,207.344177 499.736603,212.394440 
	C502.381409,218.165680 501.174927,220.524246 495.658813,221.306427 
	C498.473114,228.947983 501.249664,236.721100 504.200165,244.427612 
	C506.756744,251.105301 505.132050,256.837280 499.622498,258.518768 
	C503.635254,265.504303 507.065186,272.431366 506.181915,281.021698 
	C505.340454,289.204895 505.488220,289.820496 497.456787,290.152802 
	C498.752655,293.663635 500.755249,297.077271 501.156036,300.669678 
	C501.691864,305.472321 501.163452,310.431763 500.667114,315.280396 
	C500.563690,316.291107 498.734528,317.600159 497.479248,317.930481 
	C493.412781,319.000580 493.021606,321.326996 494.874298,324.482635 
	C498.391479,330.473145 497.717224,336.377655 494.993011,342.411438 
	C494.267517,344.018372 494.254761,345.931610 493.697693,347.633179 
	C492.380920,351.655579 490.137512,352.514374 486.970978,350.900696 
	C486.657776,356.478424 486.959991,362.444153 485.822357,368.121338 
	C484.716400,373.640411 482.497467,379.049164 479.928009,384.077515 
	C479.336609,385.234894 475.318787,384.641418 472.336212,384.900757 
	C471.999634,386.906128 471.435913,389.888306 471.007599,392.889832 
	C469.893341,400.697601 465.688995,407.178406 461.613708,413.564087 
	C459.447998,416.957611 456.552795,414.819336 454.796875,412.630310 
	C454.535309,416.734833 455.500702,421.542542 453.734711,424.923676 
	C450.573181,430.976624 446.175476,436.566681 441.404602,441.487457 
	C439.931702,443.006622 435.568542,441.723572 432.462219,441.723572 
	C432.462219,443.108185 432.532745,445.133179 432.448669,447.151733 
	C432.220001,452.639435 429.018890,456.606537 424.547150,458.770050 
	C418.836517,461.533051 413.290588,465.002869 406.192291,464.219940 
	C401.671448,463.721283 399.971527,462.012817 399.969788,457.829681 
	C399.969482,457.048492 399.766357,456.267395 399.620544,455.227203 
	C398.953156,455.567017 398.273193,455.701385 398.210968,455.975769 
	C396.405640,463.936951 390.466675,465.501801 383.599121,465.159332 
	C378.743927,464.917236 373.740265,464.709320 369.127472,463.369019 
	C364.423645,462.002319 361.615143,458.428528 362.894745,452.907349 
	C363.144379,451.830078 363.027802,450.667938 363.093536,449.257721 
	C355.248383,458.102478 345.709137,454.834930 339.042725,440.832581 
	C332.449585,444.715515 327.947479,439.965546 323.091797,436.527161 
	C320.458710,434.662628 320.201813,432.520844 323.041504,430.598572 
	C324.103638,429.879547 325.428101,429.108643 326.629547,429.114136 
	C330.850403,429.133392 335.136200,429.117523 339.258118,429.873810 
	C341.000793,430.193573 342.397430,432.399414 344.342804,434.087738 
	C348.966156,433.142059 354.561188,430.686005 357.872986,437.126831 
	C360.524780,436.388977 363.241821,434.736755 365.299530,435.338623 
	C367.004608,435.837341 367.932404,438.993713 369.177490,440.930573 
	C371.152527,439.658844 373.640625,437.053192 376.528625,436.486877 
	C379.272736,435.948761 382.435089,437.543396 385.534821,438.226990 
	C386.779236,437.556488 388.961700,435.379669 390.804321,435.636932 
	C393.195953,435.970917 395.317047,438.242126 397.786041,439.828064 
	C398.848572,437.577362 399.931885,434.702423 401.486084,432.109741 
	C404.848236,426.501129 409.198334,426.221619 415.332062,431.233307 
	C416.008270,428.537506 416.655792,425.955933 417.279755,423.468414 
	C425.176575,422.425598 425.486694,422.506317 427.616791,425.945312 
	C429.343231,418.623047 425.956207,408.948059 436.773682,405.317993 
	C437.216156,395.830688 437.950958,395.138794 446.417297,396.387726 
	C445.613068,391.867798 443.820221,387.230194 444.279907,382.827850 
	C444.729248,378.524719 447.348907,374.399048 449.330902,370.349670 
	C449.695648,369.604462 451.564178,369.595276 453.199524,369.644348 
	C454.003021,370.134216 454.345551,370.226135 454.688110,370.318054 
	C454.473755,369.866364 454.259399,369.414703 454.045044,368.963013 
	C454.364807,367.567474 454.873047,366.184570 454.967743,364.773926 
	C455.217773,361.049805 457.007874,359.480530 461.208374,360.633118 
	C462.035156,361.112488 462.369965,361.202637 462.704803,361.292816 
	C462.484924,360.849579 462.265045,360.406342 462.045166,359.963104 
M298.192200,317.274597 
	C299.144806,316.758179 300.097412,316.241730 301.050018,315.725281 
	C300.424438,315.172028 299.798889,314.618805 299.173309,314.065552 
	C298.433014,315.032196 297.692719,315.998840 296.383820,317.333557 
	C295.287628,318.591736 294.191467,319.849915 293.095306,321.108093 
	C293.508881,321.474640 293.922455,321.841217 294.336029,322.207794 
	C295.441254,320.694855 296.546478,319.181885 298.192200,317.274597 
M222.551376,240.339676 
	C221.211395,240.322632 219.871414,240.305588 218.537888,239.599564 
	C213.373642,235.054077 208.209396,230.508591 202.975281,225.147552 
	C200.798248,218.462936 202.443527,212.965973 208.406937,208.551514 
	C205.067230,208.899582 202.060837,209.212906 198.625214,209.570953 
	C202.336197,219.915817 191.834045,219.936523 187.453018,224.681366 
	C189.181534,225.018494 191.787079,226.081604 192.201706,225.521835 
	C196.427582,219.816818 199.111801,225.380875 202.760056,227.254700 
	C207.444901,235.786118 207.468872,245.095428 207.732956,254.515884 
	C208.642761,252.859695 209.197891,251.036377 208.715637,249.549530 
	C206.592926,243.004852 208.372299,240.210327 215.182434,240.018341 
	C216.335648,239.985809 217.494034,240.136597 219.214828,240.594727 
	C220.249359,240.956909 221.283890,241.319092 222.801270,242.218567 
	C225.640625,244.418884 228.354431,245.850662 230.523682,240.785690 
	C230.602310,240.237335 230.680939,239.688980 230.759552,239.140640 
	C230.288818,239.537766 229.818085,239.934891 228.676102,240.772369 
	C226.795578,240.832413 224.915039,240.892456 222.551376,240.339676 
M109.669182,253.054840 
	C110.011414,253.140350 110.353638,253.225861 110.695862,253.311386 
	C110.478943,252.861938 110.262024,252.412506 109.987213,251.173599 
	C109.214935,248.317749 108.442657,245.461899 107.531837,242.093750 
	C105.626144,245.549881 104.020576,248.461731 102.301407,251.579575 
	C105.515030,252.086258 107.418678,252.386398 109.669182,253.054840 
M411.234283,221.844040 
	C410.420746,221.620316 409.607239,221.396606 408.793701,221.172882 
	C408.712494,221.463440 408.631287,221.754013 408.550049,222.044571 
	C409.352814,222.376526 410.155548,222.708466 411.351990,223.621292 
	C417.278534,226.623245 417.660034,227.483704 416.359161,235.270462 
	C420.864868,232.164993 425.194916,229.180588 429.947845,225.904724 
	C423.154114,224.564423 417.396149,223.428467 411.234283,221.844040 
M101.094482,228.539459 
	C101.377617,228.639801 101.657532,228.753326 101.947861,228.824158 
	C101.984955,228.833221 102.076324,228.619781 102.142548,228.509430 
	C101.604698,228.444336 101.066849,228.379242 100.631393,227.589325 
	C93.563873,216.774200 94.991783,205.740982 100.117989,194.585510 
	C96.884003,194.336731 93.973289,194.112808 90.808350,193.869339 
	C98.313461,204.830383 93.842613,217.173218 94.919708,228.860046 
	C96.491356,228.693726 98.551071,228.475739 101.094482,228.539459 
M360.209442,119.881386 
	C359.571106,119.851540 358.932800,119.821693 358.294464,119.791847 
	C358.849030,120.207977 359.403564,120.624115 360.061157,121.746910 
	C362.325653,127.838264 356.842316,125.952087 354.171173,126.870964 
	C360.693787,131.081650 366.877777,135.073746 372.319397,138.586578 
	C374.145874,135.755524 375.593750,133.511337 377.076660,131.212830 
	C371.809448,127.720566 366.215576,124.011742 360.209442,119.881386 
M293.785919,372.476532 
	C293.237976,372.397736 292.690033,372.318939 292.142090,372.240143 
	C292.538849,372.711090 292.935577,373.182068 293.788666,374.148895 
	C296.223419,376.092621 298.890656,377.810974 301.041565,380.029846 
	C304.804382,383.911560 310.378479,387.169708 306.786896,394.258087 
	C306.342590,395.135040 307.821625,396.986511 308.149475,397.767365 
	C311.536774,397.105377 314.209656,396.081726 316.834991,396.191772 
	C320.441986,396.342987 320.426575,396.710876 322.207672,392.986603 
	C311.783417,396.244751 309.283539,391.824036 309.979279,383.529663 
	C310.117859,381.877411 309.999390,380.203583 309.999390,378.539703 
	C309.999390,373.501465 309.999390,368.463257 309.999390,363.425018 
	C309.587067,363.266144 309.174744,363.107300 308.762421,362.948425 
	C305.747925,369.283936 299.907898,371.144684 293.785919,372.476532 
M145.787155,305.166199 
	C153.781281,308.299316 154.010269,308.704895 152.246140,317.040375 
	C152.981735,316.731140 153.592361,316.565765 154.104904,316.244141 
	C157.303772,314.236542 160.291428,311.765350 163.706558,310.257416 
	C169.749817,307.589020 175.049149,311.661926 176.324371,318.519226 
	C179.036713,319.120605 181.197205,319.840179 183.402756,320.026550 
	C186.049316,320.250183 189.504974,321.073120 191.259705,319.789856 
	C196.769073,315.760559 202.016510,316.251770 208.457001,319.395599 
	C204.976349,310.969421 200.671875,304.066650 194.708679,297.340881 
	C193.037399,293.367981 191.366119,289.395050 189.729904,285.505463 
	C188.826904,285.395966 186.010361,285.576630 185.809799,284.936981 
	C185.061340,282.550049 185.170624,279.894135 184.966553,277.440857 
	C186.983032,277.040955 188.350616,276.769714 189.815613,276.479187 
	C185.518723,267.125977 185.035721,257.344330 193.476059,255.288254 
	C190.958618,253.693390 188.996475,252.226456 186.844849,251.132095 
	C181.793137,248.562698 176.502563,240.787537 177.101410,235.852951 
	C177.358093,233.737793 178.645874,231.747787 179.595825,229.374496 
	C177.415604,229.374496 175.258606,229.374496 172.500351,229.374496 
	C176.377762,240.009430 166.609970,240.656693 160.437698,245.420715 
	C164.611221,244.964859 167.445786,244.920181 170.145157,244.293335 
	C173.521439,243.509293 178.221527,245.738174 178.860229,249.050415 
	C180.318268,256.611481 181.765961,264.182220 182.857986,271.800629 
	C183.127502,273.680969 182.505585,277.080902 181.445190,277.469910 
	C179.247986,278.275909 176.253845,278.138397 173.996948,277.294098 
	C169.458160,275.596222 165.289795,272.929199 160.791733,271.096069 
	C155.106216,268.779053 152.427704,263.351440 154.782990,257.664764 
	C155.916916,254.927048 157.382797,252.326828 159.061691,249.319336 
	C159.139374,248.980988 159.217041,248.642654 159.294708,248.304291 
	C158.839828,248.509048 158.384949,248.713806 157.345963,249.349274 
	C155.054764,250.595154 152.763550,251.841049 150.180176,253.245819 
	C154.661545,259.364044 149.797485,263.292664 145.395447,267.615845 
	C141.012848,271.919983 137.111160,276.865906 129.215118,273.879242 
	C138.009445,282.425842 138.986069,285.481842 134.693344,290.639709 
	C139.300034,290.646851 141.580170,292.741364 141.122025,297.358643 
	C141.074524,297.837280 141.724075,298.385101 142.064026,299.625977 
	C143.135864,301.298401 144.207703,302.970856 145.787155,305.166199 
M208.418625,86.604179 
	C204.147156,88.157097 200.670258,93.298729 194.742142,88.540833 
	C197.833481,95.461357 204.292419,93.483864 208.702942,96.156319 
	C208.702942,96.156319 208.993149,96.439468 208.475723,97.101044 
	C212.592926,102.134178 216.710144,107.167313 221.074554,112.502655 
	C219.476959,113.814163 217.856705,115.144264 216.232788,116.477371 
	C227.678421,123.233047 230.566223,124.231972 267.547089,116.321716 
	C264.501129,115.679863 261.874359,115.126343 258.732086,114.464188 
	C260.120300,104.857895 269.123962,107.522896 273.601318,105.044121 
	C273.601318,101.811317 273.601318,99.273048 273.601318,96.751205 
	C269.842712,94.401802 265.427185,92.366997 261.919678,89.295326 
	C255.044830,83.274658 248.030029,78.072556 239.210388,74.780159 
	C230.923706,71.686722 224.433762,75.220825 217.863602,78.152359 
	C214.280533,79.751099 211.887726,84.017494 209.015808,87.018776 
	C209.015808,87.018776 209.079605,86.963074 208.418625,86.604179 
M156.806458,81.451073 
	C156.219116,81.322334 155.631775,81.193588 154.278900,80.897041 
	C155.379456,81.837311 155.851410,82.240540 156.761230,83.278015 
	C157.831070,84.180946 158.778824,85.333237 159.998413,85.930244 
	C161.988983,86.904648 164.156815,87.516930 166.838852,88.497284 
	C162.230881,92.287125 162.317566,92.105392 154.213989,88.239822 
	C147.582016,85.076233 140.802658,82.165970 133.913239,79.617599 
	C129.474182,77.975609 124.718040,77.190826 120.104004,76.021866 
	C125.074722,78.437057 129.980362,80.285545 134.709061,82.510147 
	C135.761612,83.005325 136.892502,84.941498 136.715240,86.001480 
	C136.529495,87.112198 134.774017,88.836868 133.771774,88.792015 
	C127.375511,88.505775 120.583672,89.003967 114.706543,86.973373 
	C104.745132,83.531631 95.383125,78.367126 85.721809,74.032326 
	C84.188690,73.344452 82.407921,73.208542 81.791649,73.063889 
	C90.802872,79.101707 100.338699,85.785622 110.176147,91.991409 
	C118.394455,97.175797 126.375114,103.235062 137.120438,101.986420 
	C144.475372,101.131760 151.932220,99.866089 159.253387,100.301025 
	C171.165451,101.008713 180.209152,109.217720 190.519714,114.122719 
	C195.440079,116.463463 200.154816,119.236443 204.962692,121.813644 
	C198.079849,116.370445 190.625015,112.099251 183.341553,107.553459 
	C182.189789,106.834610 181.265244,104.871025 181.278046,103.492622 
	C181.285904,102.646713 183.189240,101.638489 184.408325,101.047386 
	C185.213135,100.657166 186.314407,100.878403 187.282944,100.825867 
	C187.386734,100.328453 187.490524,99.831039 187.594299,99.333626 
	C181.039551,97.510948 174.484787,95.688271 166.706329,93.525314 
	C169.478699,91.353127 171.145294,90.047348 174.326538,87.554802 
	C170.328369,86.497925 167.547897,85.903107 164.864944,85.014069 
	C162.214203,84.135696 159.662018,82.959991 156.806458,81.451073 
M368.726501,342.501343 
	C369.082947,339.472168 369.761505,336.439178 369.725861,333.414612 
	C369.660492,327.866394 370.547729,323.514709 377.686371,324.994812 
	C377.686371,322.329651 377.686371,320.290466 377.686371,318.746979 
	C374.130341,320.090759 372.399323,325.286987 366.987122,323.070221 
	C361.853027,320.967285 357.526733,312.523285 358.181305,306.939697 
	C348.757629,299.545624 336.813873,298.083893 328.333221,289.569031 
	C329.245697,295.450439 330.454742,300.985016 332.035675,306.411224 
	C333.479828,311.367889 336.591614,316.169861 336.737610,321.105957 
	C337.060516,332.021729 331.580963,340.183258 321.754608,344.912964 
	C324.896484,353.992401 317.613770,356.559692 312.896851,359.699463 
	C317.482208,361.562805 322.145294,363.213013 326.586304,365.329224 
	C331.295135,367.573090 334.286346,373.988373 332.739746,377.496765 
	C331.331299,380.691681 330.020874,383.929810 328.667236,387.148895 
	C329.242188,387.417419 329.817108,387.685944 330.392059,387.954468 
	C331.950562,385.065125 333.291748,382.025330 335.148682,379.342560 
	C336.272461,377.719055 338.592041,375.266174 339.687866,375.580414 
	C343.500916,376.673584 343.057861,374.065613 344.683319,371.035156 
	C337.546753,374.138763 334.016418,370.519531 333.078766,365.661987 
	C331.690186,358.467926 331.551208,350.988922 331.490723,343.626190 
	C331.480865,342.425079 334.614136,340.175964 336.292175,340.178314 
	C340.987854,340.184906 345.682220,341.117188 350.712555,341.724701 
	C348.825928,338.344421 346.879700,335.013977 345.104462,331.594788 
	C344.451233,330.336609 343.435028,328.327271 343.937347,327.615875 
	C344.822815,326.361847 346.713928,325.208832 348.242981,325.127838 
	C353.724548,324.837433 359.230865,324.998566 364.727692,325.018921 
	C368.597961,325.033234 370.145782,327.771088 368.782440,330.578125 
	C366.674469,334.918243 368.568176,338.968536 367.507172,343.108490 
	C364.053162,345.279755 360.599182,347.451050 356.552612,349.994843 
	C356.850433,351.438751 358.350708,354.456329 354.266083,356.122864 
	C353.750366,356.333282 354.037292,358.510773 353.952362,359.776886 
	C355.973389,358.145294 357.038879,356.408508 358.007202,354.619141 
	C358.984039,352.814087 359.427094,350.214111 360.914276,349.338318 
	C362.306732,348.518280 364.760590,349.500549 366.454407,349.661774 
	C367.046112,347.367432 367.609406,345.183167 368.726501,342.501343 
M313.659302,279.040619 
	C314.001892,279.131775 314.344452,279.222931 314.687012,279.314117 
	C314.473053,278.863770 314.259064,278.413391 313.939880,277.254700 
	C312.288940,273.472107 315.290955,269.479065 317.014313,269.071411 
	C320.225800,268.311798 324.040741,270.103455 327.585754,270.829437 
	C328.441040,270.031403 329.799103,267.660309 331.483124,267.400299 
	C336.508240,266.624512 341.926239,265.917297 345.860443,270.409668 
	C350.004150,275.141235 354.787659,277.277374 361.189575,276.080505 
	C366.136444,275.155701 368.719147,279.344879 371.906006,282.064392 
	C373.463104,283.393188 374.893158,285.086609 376.703308,285.851257 
	C379.251587,286.927734 382.099640,287.294586 384.536560,287.895203 
	C385.142822,284.637787 386.210114,281.374451 386.236053,278.102905 
	C386.264893,274.472809 384.767670,270.806335 384.947754,267.206360 
	C385.411011,257.945648 389.787323,250.200699 395.949310,243.124298 
	C382.018921,243.657440 369.212646,237.807571 371.493835,228.738739 
	C365.484283,231.159210 362.800201,226.339294 359.015167,222.576172 
	C359.015167,225.499695 358.915741,227.473358 359.053436,229.430359 
	C359.132568,230.555084 359.646576,231.642426 359.876465,232.764694 
	C360.505035,235.833160 357.251923,241.685303 354.329346,242.809799 
	C350.789276,244.171875 347.658325,242.414108 347.017853,238.595459 
	C346.556244,235.843307 346.342651,233.049652 345.885437,230.296616 
	C344.649536,222.855103 347.644440,219.579254 355.274780,220.519684 
	C354.898010,219.825226 354.395081,219.312897 354.363739,218.773163 
	C354.158112,215.234497 353.591797,212.317993 348.787109,213.242493 
	C347.684448,213.454651 346.304535,212.494400 345.114685,211.939728 
	C339.067780,209.121002 333.041473,206.258179 328.223938,203.984650 
	C324.675018,211.834488 321.538086,218.772995 318.504395,225.483200 
	C321.032043,226.011810 323.927460,226.617310 327.010162,227.261993 
	C327.010162,223.938232 326.577179,219.739502 327.176086,215.693527 
	C327.523254,213.348312 329.082977,209.881271 330.874359,209.295227 
	C336.244110,207.538559 340.451660,209.691238 342.054810,213.747452 
	C345.971802,223.658066 340.852722,233.695953 329.268860,236.928589 
	C331.306396,238.551453 332.917145,239.651535 334.299286,240.988068 
	C335.608612,242.254196 337.622253,243.721176 337.695068,245.181198 
	C338.076080,252.820312 331.312347,261.131195 323.578613,263.254120 
	C319.002197,264.510406 314.333984,265.552155 309.919434,267.244354 
	C305.611206,268.895813 301.573120,271.251953 297.718872,273.149811 
	C298.868652,282.327667 299.910797,290.646301 300.494202,299.200439 
	C300.444611,299.590424 300.394989,299.980438 300.345367,300.370422 
	C300.786224,300.138214 301.227081,299.906006 302.271179,299.255432 
	C303.803650,300.164612 306.501312,300.929688 306.635132,302.011810 
	C306.950134,304.559357 306.041779,307.258148 305.745117,309.150757 
	C307.911102,310.766846 310.509766,312.705780 312.832764,314.439026 
	C313.130920,311.796906 314.516327,308.238281 313.647919,305.359528 
	C311.957245,299.755066 311.240326,293.443268 305.387451,289.719788 
	C303.504211,288.521729 302.121216,285.873688 301.462494,283.611450 
	C300.869202,281.573730 300.746246,278.371216 301.932922,277.110413 
	C303.329132,275.627075 306.416901,275.067322 308.663086,275.275085 
	C310.306458,275.427124 311.775330,277.465027 313.659302,279.040619 
M261.091675,232.372177 
	C258.781555,231.739471 255.848938,231.786804 254.276840,230.347809 
	C249.365051,225.851822 244.202530,221.288208 240.643600,215.777878 
	C238.335098,212.203629 237.992294,206.921158 238.051712,202.421021 
	C238.087250,199.729370 240.598297,197.070389 242.043793,194.306503 
	C239.773605,194.001877 237.682922,193.721344 235.591248,193.440674 
	C234.647964,201.422501 233.213669,202.746536 220.778839,204.597885 
	C223.812134,205.370880 225.952545,206.449722 228.031128,206.341492 
	C233.317413,206.066254 236.759598,210.459320 235.305710,215.529007 
	C234.320557,218.964310 234.181732,222.642334 233.520508,227.204468 
	C241.793060,221.079025 245.760986,222.669540 247.527695,231.384628 
	C248.899673,231.960007 250.397949,232.285583 251.529633,233.112701 
	C258.221680,238.003799 258.193024,238.042969 265.072266,233.441345 
	C268.468079,231.169846 274.024109,231.365311 275.960999,234.057724 
	C277.921631,236.783157 279.537506,239.753998 281.379456,242.568237 
	C283.418182,245.683151 285.156067,249.116776 287.708862,251.748138 
	C293.067780,257.272003 299.711914,256.313263 306.638214,255.184799 
	C311.051910,254.465698 311.736603,252.248413 312.186432,248.589172 
	C306.014282,251.177795 305.206177,250.761627 302.918823,243.701813 
	C301.476288,245.456558 299.821411,246.765808 299.117828,248.468216 
	C297.524353,252.323730 295.832947,251.240601 293.655670,249.121689 
	C289.352966,244.934341 288.252686,239.907532 288.798920,234.067642 
	C288.943207,232.524979 287.282440,230.533417 285.982178,229.207169 
	C284.387299,227.580490 281.896820,226.752228 280.527710,225.003876 
	C278.768311,222.757156 278.191284,219.528290 276.304535,217.448715 
	C271.721588,212.397400 271.824432,206.352173 272.173767,200.361664 
	C272.402405,196.440933 274.291962,193.119919 279.061981,192.911850 
	C279.431458,192.895737 279.786560,192.550247 280.511749,192.164581 
	C279.210327,190.955505 278.179718,189.998001 277.111359,189.005447 
	C270.166046,199.103378 262.614258,192.433258 255.120834,190.383820 
	C259.002258,191.767258 259.813751,198.128754 265.466553,196.328186 
	C265.732635,196.243408 266.689758,197.416580 266.861084,198.117325 
	C267.365479,200.180389 267.791595,202.287476 267.970001,204.400848 
	C268.567963,211.484207 268.427551,218.518967 265.442719,225.156418 
	C264.376190,227.528046 263.004303,229.762344 261.091675,232.372177 
M253.893280,275.998779 
	C251.688766,279.586426 251.590195,282.113525 256.824371,282.414459 
	C258.040955,282.484436 259.441559,283.132935 260.358459,283.958405 
	C263.704926,286.971100 267.387512,287.033264 270.706818,284.604004 
	C274.462433,281.855438 273.220428,277.949860 272.058746,274.198486 
	C271.495941,272.381073 270.741699,270.115997 271.340881,268.533081 
	C273.999756,261.508636 270.545776,257.370209 265.262970,253.723663 
	C262.282928,251.666626 253.903931,251.588593 250.256485,253.094086 
	C247.706894,254.146439 244.616882,254.682510 241.898193,254.358566 
	C237.023804,253.777771 235.171204,255.129959 235.255173,258.993195 
	C238.264023,260.374939 240.833801,261.277527 243.102814,262.670135 
	C245.700729,264.264618 248.379532,265.985443 250.371460,268.229828 
	C252.053833,270.125366 252.805191,272.847229 253.893280,275.998779 
M477.268188,257.262909 
	C477.868744,256.231995 478.986023,255.196823 478.977570,254.170975 
	C478.946198,250.374390 478.475616,246.554321 483.304230,244.855911 
	C481.145599,242.500168 479.338989,240.528580 477.216644,238.212418 
	C475.574249,249.306229 474.989746,261.162445 458.595734,259.003876 
	C459.228699,260.203888 459.395752,260.652954 459.674133,261.016846 
	C460.075958,261.542114 460.483490,262.116669 461.018341,262.478302 
	C466.791962,266.382080 471.205048,270.846558 471.509583,278.631287 
	C471.661865,282.524231 474.667511,283.152740 477.186462,281.133392 
	C476.446594,278.637390 474.828522,276.093994 475.414795,274.252380 
	C475.900879,272.725494 478.984650,272.025604 479.721710,271.619019 
	C478.701904,266.836212 477.734924,262.301239 477.268188,257.262909 
M224.580750,302.267975 
	C220.696014,299.243439 217.213486,295.140747 212.812897,293.499054 
	C208.452972,291.872528 208.214203,289.046234 207.729919,285.802338 
	C207.479996,284.128174 207.881683,282.356750 208.019867,280.131409 
	C200.528687,287.056641 199.216873,289.267700 206.321152,296.745270 
	C210.797913,301.457306 214.197571,306.615906 215.141449,313.273743 
	C215.332047,314.618164 217.360748,316.754120 218.495987,316.725067 
	C222.763031,316.615997 226.389694,311.040955 225.419250,306.925354 
	C225.119308,305.653290 225.046204,304.327728 224.580750,302.267975 
M300.671417,110.093353 
	C302.091125,113.483650 299.901703,118.749382 296.675751,119.435677 
	C290.893005,120.665909 285.085449,121.779587 279.288300,122.941978 
	C279.330963,123.393410 279.373627,123.844841 279.416290,124.296272 
	C289.087372,125.674416 298.729248,120.570740 308.519440,123.841599 
	C317.928253,126.985039 327.610657,129.309662 336.012299,131.668274 
	C324.527893,124.397903 312.181396,116.581757 300.247528,109.026840 
	C300.247528,108.317276 300.247528,108.941673 300.671417,110.093353 
M236.360367,305.859070 
	C237.964676,308.964111 239.427612,312.154572 241.230865,315.139435 
	C242.182327,316.714447 243.543350,318.665131 245.069733,319.047363 
	C246.063293,319.296173 247.721359,317.064331 249.020615,315.876923 
	C250.753311,314.293365 252.440674,312.659180 254.120087,311.018646 
	C255.072464,310.088348 256.850189,308.914124 256.694214,308.182861 
	C256.434082,306.963135 255.095428,305.723572 253.903259,304.997375 
	C249.629471,302.394226 245.191055,300.062927 240.886276,297.508514 
	C238.376373,296.019165 235.389236,297.112396 235.139191,300.010895 
	C234.991104,301.727509 235.587723,303.508423 236.360367,305.859070 
M304.531952,225.103500 
	C304.161591,219.579041 303.239227,214.020020 303.582367,208.540237 
	C303.899597,203.473480 303.239502,196.990982 311.545868,196.833679 
	C310.471558,193.941345 309.693298,192.534607 307.148560,195.222321 
	C304.543701,197.973526 301.388733,197.701233 298.215149,195.773819 
	C296.292786,194.606308 294.186798,193.741196 292.163300,192.740219 
	C291.675964,193.076874 291.188660,193.413513 290.701324,193.750168 
	C305.637177,201.919647 299.159515,212.998474 295.359283,223.870102 
	C298.987579,221.421555 301.805786,220.970139 304.531952,225.103500 
M293.453674,331.988525 
	C292.348999,331.361084 291.000458,330.956329 290.185669,330.064117 
	C287.820343,327.474030 285.796173,324.567230 283.378998,322.031769 
	C282.207855,320.803314 280.457092,320.127411 278.968750,319.201324 
	C279.249237,318.817169 279.529694,318.432983 279.810181,318.048798 
	C277.794891,318.634308 275.779602,319.219818 273.263367,319.950867 
	C278.492218,323.128357 282.345825,326.305267 281.278717,330.757233 
	C283.822144,334.406647 285.582855,336.933014 286.909424,338.836395 
	C289.524719,337.195068 292.442505,335.363922 295.360291,333.532776 
	C294.978302,333.040344 294.596313,332.547913 293.453674,331.988525 
M52.269333,308.411072 
	C53.834030,310.874908 55.398724,313.338745 56.944172,315.772278 
	C58.987473,315.966736 61.765396,316.231110 65.768082,316.612030 
	C63.361687,311.622833 61.112095,306.958740 58.769047,302.100861 
	C56.262150,304.279449 54.286659,305.996246 52.269333,308.411072 
M80.286850,281.342163 
	C79.276054,283.197906 78.397995,285.142670 77.226257,286.890533 
	C74.928467,290.318054 75.607605,298.677734 78.726517,302.040802 
	C78.885246,294.342010 85.461815,287.842346 82.322891,279.500000 
	C81.702858,280.026978 81.211815,280.444305 80.286850,281.342163 
M263.977875,344.019409 
	C263.178833,344.151794 261.840210,344.051483 261.666809,344.453644 
	C260.370056,347.461090 258.132599,348.438904 255.032059,348.186310 
	C254.534805,348.145782 253.694473,348.752411 253.489532,349.254486 
	C251.906052,353.133850 249.139572,352.177765 246.328323,350.649078 
	C245.958450,352.627716 245.677765,354.129303 245.378464,355.730469 
	C248.327118,355.983643 250.891220,356.203766 253.455322,356.423889 
	C253.244171,356.115570 253.033020,355.807281 252.821869,355.498962 
	C256.479218,352.898132 260.136536,350.297302 263.793884,347.696472 
	C264.244659,347.999207 264.695465,348.301910 265.146240,348.604645 
	C264.993927,347.084351 264.841583,345.564087 263.977875,344.019409 
M256.188416,176.993378 
	C245.454819,178.622345 234.721222,180.251297 223.987625,181.880249 
	C224.138336,182.626892 224.289032,183.373535 224.439743,184.120178 
	C230.616898,182.453201 236.729996,180.461319 242.992355,179.226395 
	C247.646133,178.308701 252.502060,178.458084 257.252655,177.980194 
	C265.457184,177.154907 273.649841,176.211563 281.847473,175.317749 
	C281.795349,174.763321 281.743225,174.208893 281.691071,173.654449 
	C273.488922,174.761093 265.286743,175.867752 256.188416,176.993378 
M282.251251,371.994141 
	C279.345856,373.762482 276.440430,375.530823 273.161133,377.526703 
	C277.113190,380.911530 280.567474,385.744019 280.086853,392.544312 
	C281.907867,385.042511 278.285431,376.377411 286.175873,370.286987 
	C285.069458,370.741638 283.963043,371.196289 282.251251,371.994141 
M339.284760,187.825119 
	C340.183472,188.172775 341.082153,188.520447 343.232910,189.352463 
	C336.028107,182.041138 302.402374,174.992462 293.540222,176.142639 
	C295.274475,176.948425 297.116150,177.986938 298.910522,177.910828 
	C313.099701,177.309082 325.646027,183.457321 339.284760,187.825119 
M260.772675,398.812134 
	C259.506592,396.881378 258.240479,394.950592 256.996307,393.053253 
	C255.980362,395.659607 254.844894,398.572540 253.709442,401.485504 
	C254.175568,401.166168 254.641678,400.846832 255.107803,400.527496 
	C257.645538,402.355713 260.161316,404.215759 262.736633,405.989410 
	C263.367004,406.423523 264.228119,406.883057 264.921509,406.802246 
	C267.786835,406.468353 270.628479,405.931396 274.699707,405.271027 
	C270.933624,404.331268 268.201843,403.929932 265.708862,402.932007 
	C263.959076,402.231598 262.534790,400.718109 260.772675,398.812134 
M404.499359,153.885162 
	C401.061157,151.617813 397.730896,149.154877 394.136505,147.170441 
	C392.484558,146.258408 390.314484,146.284821 388.379364,145.885696 
	C388.264435,146.382584 388.149506,146.879471 388.034607,147.376358 
	C391.111694,148.926346 394.178497,150.497177 397.268799,152.020401 
	C400.328949,153.528778 403.412720,154.989120 406.486145,156.470535 
	C406.719360,155.950607 406.952545,155.430664 407.185760,154.910736 
	C406.520752,154.607071 405.855774,154.303421 404.499359,153.885162 
M383.556793,306.126129 
	C384.104034,304.994568 384.651276,303.863007 385.336060,302.447021 
	C381.859802,303.728821 379.061188,304.760742 375.871704,305.936768 
	C376.280975,307.343811 376.629150,308.716064 377.082825,310.052460 
	C377.558899,311.454773 378.136169,312.822723 378.877960,314.747253 
	C380.449615,311.623871 381.720276,309.098633 383.556793,306.126129 
M280.072601,398.025452 
	C280.006622,402.555878 286.576996,407.453156 290.097839,406.134338 
	C287.461334,402.992462 284.729279,399.707886 281.907562,396.502258 
	C281.815216,396.397278 280.809845,397.096008 280.072601,398.025452 
M66.084564,323.719238 
	C63.621586,325.676971 61.158607,327.634705 58.584450,329.680817 
	C61.307491,330.169312 64.001068,330.652496 67.099907,331.208374 
	C66.929276,328.312531 66.794754,326.029602 66.084564,323.719238 
M105.763863,230.938416 
	C105.000839,230.760269 104.237816,230.582123 103.731438,230.463898 
	C105.161552,233.178192 106.494873,235.708771 107.895660,238.367401 
	C108.937286,235.100830 109.985352,231.814087 111.161583,228.125427 
	C109.282990,229.269150 107.863403,230.133423 105.763863,230.938416 
M38.708984,325.009613 
	C36.761829,325.009613 34.814671,325.009613 32.549149,325.009613 
	C33.385994,326.846008 34.071693,328.350739 35.118752,330.648438 
	C37.481815,328.993134 39.561504,327.536316 42.574852,325.425507 
	C40.597176,325.171173 39.985332,325.092499 38.708984,325.009613 
M367.376343,303.819305 
	C368.736023,303.384613 370.095703,302.949921 371.503571,302.499817 
	C369.834229,300.692688 368.181030,298.903015 366.597595,297.188843 
	C365.430420,299.123566 364.420654,300.797333 363.295135,302.663025 
	C364.383362,303.064362 365.541168,303.491364 367.376343,303.819305 
M52.514362,338.393341 
	C53.963245,336.136902 55.412128,333.880463 56.861012,331.624023 
	C56.513081,331.234039 56.165150,330.844055 55.817219,330.454102 
	C53.303944,332.191711 50.790668,333.929321 47.892307,335.933167 
	C49.925587,337.051239 50.921623,337.598938 52.514362,338.393341 
M80.237061,359.713654 
	C78.658875,358.768738 77.080681,357.823822 75.262398,356.735168 
	C75.262398,358.773438 75.262398,360.349579 75.262398,361.568817 
	C78.737953,361.267822 81.981316,360.986908 85.224678,360.705994 
	C85.222542,360.538513 85.220406,360.371033 85.218269,360.203522 
	C83.791626,360.113220 82.364983,360.022919 80.237061,359.713654 
M283.670013,340.245880 
	C282.836761,340.852814 282.003479,341.459778 281.170227,342.066711 
	C281.594727,342.448761 282.019226,342.830780 282.443695,343.212830 
	C283.079498,342.237885 283.715271,341.262909 283.670013,340.245880 
M374.889648,147.894470 
	C375.004181,147.778198 375.197601,147.669022 375.208893,147.543442 
	C375.218323,147.438721 375.019470,147.221436 374.903870,147.214996 
	C374.301666,147.181442 373.696564,147.199356 373.092499,147.199356 
	C373.082916,147.343842 373.073334,147.488312 373.063751,147.632797 
	C373.507568,147.730576 373.951355,147.828354 374.889648,147.894470 
M66.767380,318.743805 
	C66.490425,318.835358 66.213478,318.926941 65.936516,319.018463 
	C66.135727,319.362030 66.334938,319.705627 66.534157,320.049194 
	C66.650368,319.784119 66.766579,319.519073 66.767380,318.743805 
M175.775864,321.185120 
	C175.491394,321.135651 175.206924,321.086182 174.922455,321.036743 
	C175.127197,321.241760 175.331940,321.446777 175.775864,321.185120 
M100.894249,193.001724 
	C101.063965,193.215057 101.233688,193.428375 101.403412,193.641708 
	C101.370346,193.327881 101.337273,193.014069 100.894249,193.001724 
M324.696289,202.682388 
	C325.003113,202.806839 325.309967,202.931305 325.616791,203.055771 
	C325.418060,202.802048 325.219360,202.548309 324.696289,202.682388 
M82.998299,313.292450 
	C83.092674,313.597778 83.187050,313.903107 83.281441,314.208435 
	C83.358070,313.917694 83.434700,313.626923 82.998299,313.292450 
M344.894531,371.001678 
	C345.064117,371.214844 345.233673,371.428009 345.403290,371.641174 
	C345.370239,371.327576 345.337219,371.013977 344.894531,371.001678 
M355.129608,346.028900 
	C354.862061,346.117065 354.594513,346.205200 354.326965,346.293365 
	C354.651825,346.372253 354.976654,346.451172 355.129608,346.028900 
z"/>
<path  
	d="
M133.699829,383.652222 
	C130.913116,385.456573 128.661453,387.703888 125.948967,388.939789 
	C117.859962,392.625488 109.505836,394.812958 100.539940,391.895142 
	C98.470352,391.221558 96.103691,391.519806 93.939308,391.061340 
	C91.920601,390.633636 88.743912,390.251251 88.297180,389.034027 
	C87.536407,386.961182 87.677269,383.636688 88.927620,381.925720 
	C92.183723,377.470093 96.052620,373.402252 100.044151,369.561188 
	C103.921532,365.829956 117.536835,366.458282 121.544197,369.980682 
	C122.678322,370.977570 124.363136,371.745667 125.853798,371.860474 
	C129.493042,372.140869 133.203812,371.678009 136.809402,372.127319 
	C138.463837,372.333496 140.284729,373.721130 141.321777,375.104126 
	C141.726913,375.644409 140.444427,377.882019 139.475800,378.923645 
	C137.850296,380.671600 135.860672,382.080994 133.699829,383.652222 
z"/>
<path  
	d="
M80.979202,229.996216 
	C80.948784,232.226074 80.948784,234.484238 80.948784,237.549652 
	C75.991646,235.728180 72.431778,236.189423 68.291283,238.529831 
	C63.629940,241.164673 59.836018,236.205475 56.393166,233.665359 
	C48.859779,228.107254 43.213062,220.758179 39.544014,212.073990 
	C38.875839,210.492523 39.073616,208.545197 38.871639,206.766754 
	C40.785225,206.603470 43.019665,205.715866 44.558914,206.397659 
	C52.860790,210.075027 61.342495,213.567657 69.044167,218.294022 
	C73.511818,221.035721 76.629913,225.976532 80.710327,230.006958 
	C81.065338,230.086182 81.009621,230.024521 80.979202,229.996216 
z"/>
<path  
	d="
M405.911774,118.033577 
	C415.735748,114.458763 425.767426,115.594826 435.663910,117.283989 
	C437.661987,117.625031 439.717682,120.591949 440.645264,122.809082 
	C441.026215,123.719635 438.491089,125.850182 437.127228,127.697037 
	C436.972046,127.968292 437.053101,127.920540 436.683411,127.986343 
	C431.549805,129.365204 426.850983,131.084442 422.001221,131.862106 
	C418.160583,132.477966 415.830994,130.237396 416.278442,125.918396 
	C416.554138,125.407425 416.600525,125.014763 416.646912,124.622101 
	C416.207794,124.856514 415.768646,125.090927 415.076660,125.521950 
	C407.879395,127.613152 405.896301,125.851990 406.016846,117.954781 
	C405.982574,117.982040 405.911774,118.033577 405.911774,118.033577 
z"/>
<path  
	d="
M436.931213,127.991623 
	C441.260437,126.823776 445.623047,125.604523 450.002563,124.449287 
	C454.443512,123.277840 463.334351,126.392921 465.420105,130.161728 
	C465.954742,131.127808 465.418030,133.010941 464.823761,134.197418 
	C464.040314,135.761581 462.714355,137.053986 461.825928,138.804825 
	C462.030182,139.146408 462.065125,139.064087 461.761719,138.811691 
	C460.606689,139.045090 459.755035,139.530884 458.903381,140.016663 
	C458.903381,140.016678 458.976868,139.970886 458.645874,140.013489 
	C454.548737,141.064011 450.667236,143.153488 447.049713,142.767685 
	C443.612915,142.401138 440.380219,139.558548 437.223389,137.544937 
	C436.480286,137.070938 436.044250,135.535995 436.092987,134.519104 
	C436.198853,132.309326 436.708496,130.118881 437.053101,127.920540 
	C437.053101,127.920540 436.972046,127.968292 436.931213,127.991623 
z"/>
<path  
	d="
M237.571548,428.596375 
	C237.615570,427.913605 237.809158,427.619080 237.855225,427.303040 
	C238.361832,423.826721 236.705246,418.961975 242.891541,419.058533 
	C246.881119,419.120819 252.862930,425.013855 252.972397,428.873901 
	C253.071152,432.355988 253.142029,435.852203 252.925812,439.323578 
	C252.832947,440.814667 251.983170,442.258606 251.477295,443.723969 
	C249.739441,443.094513 247.355331,442.975067 246.382324,441.742035 
	C243.195999,437.704376 240.522980,433.261658 237.571548,428.596375 
z"/>
<path  
	d="
M231.756409,423.438324 
	C227.724304,419.046265 225.173538,414.326599 226.161591,408.673615 
	C226.516861,406.640961 228.724213,404.932068 230.086334,403.075409 
	C231.439209,404.456482 232.964752,405.708496 234.111923,407.243317 
	C237.284653,411.488159 237.331207,416.457214 236.958282,421.440125 
	C236.683945,425.105927 235.756271,425.496246 231.756409,423.438324 
z"/>
<path  
	d="
M393.408020,120.002457 
	C393.408020,120.002449 393.489807,120.002831 393.530762,119.999863 
	C388.401794,118.090942 389.489807,114.802414 391.648682,111.277298 
	C401.888031,110.670776 404.961945,109.812988 406.027222,117.730164 
	C405.911774,118.033577 405.982574,117.982040 405.660187,118.115311 
	C401.876770,118.806435 398.415741,119.364273 394.954712,119.922119 
	C394.954712,119.922127 395.024536,119.978874 394.909790,119.795105 
	C394.332703,119.741707 393.870361,119.872086 393.408020,120.002457 
z"/>
<path  
	d="
M232.526520,378.034698 
	C231.852707,377.792938 231.584290,377.523499 231.164246,376.672974 
	C231.360077,374.706482 231.707565,373.321075 232.055054,371.935669 
	C232.055069,371.935669 231.962692,371.947937 231.924347,371.974121 
	C234.366241,371.991333 236.651672,372.242035 236.912750,375.471619 
	C237.186508,378.857880 234.616104,377.724670 232.526520,378.034698 
z"/>
<path  
	d="
M208.993149,96.439468 
	C208.993149,96.439468 208.702942,96.156319 208.400726,95.783524 
	C208.425537,92.594841 208.752563,89.778954 209.079605,86.963074 
	C209.079605,86.963074 209.015808,87.018776 209.341980,86.984085 
	C215.475021,85.159645 219.159637,75.958153 227.237564,81.911461 
	C227.557755,82.147430 228.452682,81.453827 229.085556,81.439079 
	C233.880829,81.327309 238.957336,80.242966 243.408798,81.447563 
	C250.239975,83.296127 254.869537,88.070564 254.233551,96.068298 
	C258.054688,95.282402 261.993805,92.322876 264.480652,97.084908 
	C267.080444,102.063217 262.418213,103.627251 259.521393,105.799126 
	C256.304962,108.210648 254.821732,105.639206 253.621918,103.485260 
	C251.031509,106.205452 248.970627,109.500336 245.998062,111.211700 
	C242.071487,113.472336 238.285767,117.593094 232.934433,115.438545 
	C225.737106,112.540756 219.646561,108.417885 218.305389,99.884834 
	C218.639862,98.903694 218.718002,98.073563 218.873093,96.425743 
	C218.085083,97.924309 217.714661,98.628723 217.038376,99.540649 
	C214.152710,98.645264 211.572937,97.542366 208.993149,96.439468 
z"/>
<path  
	d="
M146.381653,304.131317 
	C144.886810,302.388153 143.727753,300.815796 142.248138,299.146332 
	C143.557526,295.392242 148.868561,293.774414 152.589249,295.306580 
	C155.612656,296.551605 158.879593,297.582855 162.110901,297.857574 
	C167.063736,298.278656 172.078781,297.968201 177.256958,297.968201 
	C173.086960,294.180237 169.116058,290.573151 164.920654,286.762115 
	C165.260498,288.169128 165.687119,289.631805 165.959229,291.122711 
	C166.597275,294.618622 163.747101,298.009491 160.536346,296.813324 
	C152.759109,293.915863 144.994812,290.569214 140.485748,282.957336 
	C137.729538,278.304443 139.134293,274.614807 144.027725,272.065063 
	C153.132141,267.321198 154.884979,267.877289 160.512192,276.841064 
	C161.688324,278.714569 163.366089,280.273163 164.731979,281.881836 
	C166.919800,279.188141 172.456436,278.214783 177.247742,280.169830 
	C181.407471,281.867157 183.748413,289.425659 182.477585,298.445465 
	C184.503281,297.281494 186.042023,296.397339 187.699768,295.444794 
	C189.608932,296.327637 191.701080,297.295105 194.069977,298.466370 
	C196.567917,305.338959 195.429352,308.323090 189.143631,312.306976 
	C185.332886,314.722260 179.535995,313.847321 175.478058,310.409271 
	C171.155853,306.747284 166.208847,305.579773 160.475723,305.855286 
	C155.925018,306.074005 151.306061,304.872833 146.381653,304.131317 
z"/>
</g>
</svg>