<?xml version="1.0" standalone="no"?>
<!DOCTYPE svg PUBLIC "-//W3C//DTD SVG 20010904//EN"
 "http://www.w3.org/TR/2001/REC-SVG-20010904/DTD/svg10.dtd">
<svg version="1.0" xmlns="http://www.w3.org/2000/svg"
 width="213.000000pt" height="213.000000pt" viewBox="0 0 213.000000 213.000000"
 preserveAspectRatio="xMidYMid meet">
<metadata>
Created by potrace 1.14, written by Peter Selinger 2001-2017
</metadata>
<g transform="translate(0.000000,213.000000) scale(0.100000,-0.100000)"
fill="#000000" stroke="none">
<path d="M602 1944 c-13 -9 -119 -130 -237 -269 -285 -337 -285 -320 -15 -389
80 -20 151 -39 158 -42 10 -3 2 -18 -25 -52 -59 -71 -71 -92 -66 -111 6 -25
48 -46 133 -66 41 -10 77 -19 79 -21 2 -2 -15 -24 -38 -49 -47 -51 -45 -36
-25 -255 9 -91 19 -211 23 -267 5 -84 10 -106 26 -121 26 -24 641 -185 703
-184 85 1 89 5 294 301 109 157 195 291 199 311 14 60 11 533 -3 553 -8 10
-51 27 -105 40 l-92 22 45 65 c25 36 44 74 42 85 -4 28 -56 50 -189 80 -63 14
-131 30 -151 36 l-37 9 50 72 c27 39 49 79 49 89 0 38 -46 53 -412 133 -230
51 -362 61 -406 30z"/>
</g>
</svg>
